<?xml version="1.0" standalone="no"?>
<!DOCTYPE svg PUBLIC "-//W3C//DTD SVG 20010904//EN"
 "http://www.w3.org/TR/2001/REC-SVG-20010904/DTD/svg10.dtd">
<svg version="1.0" xmlns="http://www.w3.org/2000/svg"
 width="2200.000000pt" height="2200.000000pt" viewBox="0 0 2200.000000 2200.000000"
 preserveAspectRatio="xMidYMid meet">
<metadata>
Created by potrace 1.14, written by Peter Selinger 2001-2017
</metadata>
<g transform="translate(0.000000,2200.000000) scale(0.100000,-0.100000)"
fill="#000000" stroke="none">
<path d="M7547 20864 c-13 -7 -34 -34 -47 -61 -26 -54 -26 -53 -75 -183 -20
-52 -42 -108 -48 -125 -7 -16 -12 -32 -13 -35 0 -3 -6 -18 -13 -35 -7 -16 -22
-55 -33 -85 -11 -30 -26 -69 -34 -87 -8 -17 -14 -37 -14 -45 0 -8 -4 -18 -8
-23 -5 -6 -27 -59 -49 -120 -23 -60 -44 -119 -49 -130 -4 -11 -8 -22 -9 -25
-1 -3 -7 -18 -14 -35 -7 -16 -14 -34 -15 -40 -2 -5 -9 -23 -15 -40 -11 -25
-59 -151 -136 -355 -9 -25 -21 -54 -25 -65 -17 -39 -82 -210 -85 -220 -2 -10
-10 -32 -39 -105 -21 -53 -41 -104 -42 -110 0 -3 -4 -14 -9 -25 -25 -60 -67
-171 -69 -180 -1 -5 -10 -27 -19 -49 -9 -21 -17 -42 -17 -47 0 -5 -4 -17 -9
-27 -9 -16 -55 -131 -57 -142 0 -3 -6 -18 -13 -35 -6 -16 -35 -91 -63 -165
-28 -74 -56 -148 -63 -165 -7 -16 -29 -75 -50 -130 -20 -55 -43 -113 -50 -130
-7 -16 -24 -61 -38 -100 -14 -38 -46 -124 -72 -190 -26 -66 -48 -124 -49 -130
-1 -5 -7 -19 -13 -30 -6 -11 -12 -24 -13 -30 -4 -17 -126 -341 -162 -430 -11
-27 -21 -54 -23 -60 -1 -5 -7 -23 -14 -40 -21 -53 -69 -177 -111 -290 -23 -60
-45 -119 -50 -130 -5 -11 -57 -146 -116 -300 -124 -327 -325 -856 -355 -935
-12 -30 -27 -69 -35 -87 -8 -17 -14 -34 -14 -37 0 -5 -59 -160 -104 -276 -35
-87 -68 -176 -71 -185 -1 -5 -7 -23 -14 -40 -26 -64 -164 -426 -166 -435 -1
-3 -7 -18 -14 -35 -7 -16 -57 -149 -112 -295 -55 -146 -104 -274 -109 -285 -4
-11 -23 -58 -40 -105 -18 -47 -36 -94 -40 -105 -30 -77 -35 -91 -36 -95 0 -3
-5 -16 -11 -30 -6 -14 -18 -43 -26 -65 -8 -22 -32 -83 -52 -135 -21 -52 -38
-99 -40 -105 -1 -5 -6 -19 -10 -30 -36 -89 -68 -173 -70 -187 -2 -9 -10 -29
-18 -45 -8 -15 -20 -46 -27 -68 -7 -22 -18 -53 -25 -70 -18 -42 -67 -167 -70
-180 -6 -27 -32 -86 -62 -144 -68 -130 -138 -201 -279 -279 -38 -21 -87 -49
-108 -61 -159 -91 -320 -224 -458 -380 -147 -165 -289 -445 -339 -666 -6 -27
-13 -59 -15 -70 -33 -148 -51 -381 -31 -401 3 -4 26 9 49 28 252 207 554 396
908 570 124 61 326 153 415 188 23 9 111 45 152 62 15 6 33 12 38 14 6 1 24 8
40 15 17 6 35 13 40 15 6 1 66 23 135 48 209 75 708 243 750 251 3 1 39 12 80
25 41 13 80 24 85 26 6 1 30 9 55 17 25 8 72 23 105 32 33 9 76 22 95 28 19 6
37 12 40 12 3 0 39 11 80 24 41 13 82 25 90 27 8 2 40 10 70 19 30 9 62 17 70
19 8 2 42 12 75 22 33 10 65 19 70 20 6 1 53 14 105 29 52 15 102 28 110 30 9
2 67 17 130 34 127 35 454 120 483 126 10 2 27 7 37 10 10 3 28 8 39 10 47 11
58 13 101 25 25 7 52 14 62 15 9 2 63 15 120 29 57 15 112 28 123 30 11 2 40
9 65 16 25 7 56 14 70 16 14 3 33 7 42 10 9 3 25 6 35 8 10 3 50 12 88 21 39
9 77 18 85 20 8 1 33 8 55 13 44 12 88 22 122 27 11 2 30 6 41 9 11 4 29 8 39
10 10 2 72 16 138 31 66 15 126 28 135 30 8 2 35 8 60 14 25 5 56 12 70 15 14
3 68 14 120 26 52 11 106 22 120 25 14 3 35 7 48 10 12 3 32 7 45 10 12 3 33
7 47 10 46 9 67 13 166 35 55 12 113 24 129 27 17 2 46 8 65 13 19 5 49 12 65
14 17 3 40 8 53 11 12 3 32 7 45 10 23 5 53 11 102 20 17 4 58 12 93 20 34 8
77 17 95 20 17 3 39 8 47 10 8 2 31 7 50 10 19 3 43 8 52 11 25 7 59 14 97 20
19 2 37 7 41 9 4 3 25 7 46 10 22 4 47 8 56 11 9 3 26 7 37 9 12 3 31 7 44 10
12 3 33 7 47 10 54 10 72 14 88 19 9 3 35 8 56 12 22 3 50 10 63 15 13 5 23 7
23 4 0 -2 15 1 33 6 17 5 43 11 58 14 14 3 86 18 160 35 73 17 142 33 152 35
10 2 26 6 35 9 9 3 28 7 42 10 14 3 36 8 50 11 14 3 37 7 52 10 15 3 38 9 52
15 15 5 26 7 26 5 0 -2 11 0 25 5 14 5 36 12 48 14 33 7 160 36 180 41 23 7
58 15 82 21 11 2 83 20 160 39 77 20 151 38 165 41 26 5 430 108 565 144 44
12 87 23 95 25 8 1 35 9 60 16 60 17 62 17 85 22 11 3 63 17 115 32 52 14 100
27 105 29 6 1 30 8 55 15 25 7 52 14 60 16 8 2 42 11 75 21 33 10 65 19 72 20
7 1 43 11 80 23 79 24 241 71 263 76 8 2 38 11 65 20 28 9 60 18 73 21 13 2
42 11 65 19 65 21 216 66 224 66 5 1 14 5 21 11 6 6 12 8 12 5 0 -3 26 3 58
14 31 11 65 22 75 24 9 2 22 7 27 10 5 3 20 8 31 10 21 4 51 14 304 97 132 44
142 47 153 49 4 1 18 6 32 11 14 6 77 28 140 50 63 21 122 42 130 45 8 4 17 7
20 7 3 1 28 9 55 19 57 21 73 26 80 27 3 0 19 7 36 16 17 8 38 17 47 19 10 2
49 15 87 30 39 15 81 30 95 35 23 7 98 36 145 55 11 5 22 9 25 9 10 3 156 59
185 72 17 7 65 27 107 43 119 47 229 97 428 194 566 278 957 589 1203 955 69
103 156 279 196 398 30 86 36 106 47 164 3 14 7 32 9 40 2 8 7 29 10 45 2 17
7 40 9 52 19 92 25 289 13 393 -11 101 -36 212 -55 247 -6 10 -10 23 -11 28
-2 19 -23 80 -31 88 -4 5 -14 -7 -21 -27 -7 -20 -17 -36 -21 -36 -4 0 -8 -4
-8 -10 0 -16 -135 -235 -200 -325 -275 -381 -752 -765 -1263 -1018 -77 -37
-79 -38 -99 -20 -20 18 -43 61 -40 76 1 4 -2 7 -6 7 -5 0 -9 6 -9 13 0 11
-120 331 -145 387 -6 14 -12 30 -14 35 -4 16 -127 341 -144 380 -5 11 -29 75
-54 141 -25 67 -50 132 -55 145 -5 13 -17 44 -26 69 -10 25 -21 54 -26 65 -8
20 -84 222 -124 330 -12 33 -46 121 -74 195 -29 74 -70 182 -92 240 -22 58
-52 134 -65 169 -14 36 -48 126 -76 200 -27 75 -53 140 -56 146 -4 5 -7 15 -8
20 -2 9 -15 45 -115 301 -21 55 -39 103 -39 106 0 3 -8 23 -17 44 -9 22 -17
41 -18 44 -1 8 -45 123 -54 145 -14 32 -134 347 -202 530 -16 44 -33 89 -38
100 -5 11 -23 58 -41 105 -17 47 -35 94 -40 105 -5 11 -23 58 -40 105 -34 91
-92 242 -105 275 -5 11 -9 22 -9 25 -1 3 -7 19 -13 35 -26 63 -36 90 -37 95
-1 6 -24 65 -36 95 -5 11 -17 45 -28 75 -11 30 -26 69 -33 85 -7 17 -13 32
-13 35 -1 4 -17 47 -61 160 -8 19 -33 85 -55 145 -61 162 -72 182 -105 198
-25 12 -241 14 -1423 13 -1491 -2 -1421 0 -1406 -48 3 -9 7 -26 9 -37 10 -42
13 -57 30 -121 9 -36 19 -75 21 -87 2 -12 9 -34 14 -48 5 -14 7 -25 5 -25 -2
0 0 -11 5 -26 6 -14 12 -37 15 -52 2 -15 21 -90 41 -167 19 -77 37 -149 40
-160 4 -18 29 -120 38 -155 15 -54 79 -320 82 -340 3 -14 8 -34 11 -45 4 -11
8 -24 9 -30 1 -5 16 -66 34 -135 32 -128 37 -147 44 -177 2 -10 12 -47 21 -83
9 -36 19 -76 22 -89 2 -14 6 -28 8 -31 2 -4 7 -22 10 -41 3 -19 8 -42 11 -51
3 -9 7 -25 9 -35 2 -10 14 -54 25 -98 12 -44 23 -90 26 -103 2 -12 25 -104 50
-205 46 -180 51 -201 60 -244 2 -12 9 -34 14 -48 5 -14 7 -25 5 -25 -2 0 0
-11 5 -25 5 -14 12 -36 14 -48 5 -21 10 -42 21 -87 3 -11 7 -29 10 -40 3 -11
7 -29 10 -40 3 -11 7 -29 10 -40 3 -11 7 -29 10 -41 2 -11 7 -29 10 -39 3 -10
8 -28 10 -39 3 -12 7 -30 10 -41 12 -49 16 -67 21 -90 3 -14 9 -39 15 -57 5
-17 12 -42 14 -55 3 -13 16 -68 30 -123 14 -55 28 -109 31 -120 3 -11 7 -29 9
-40 4 -15 85 -337 99 -390 1 -5 8 -37 15 -70 7 -33 20 -85 28 -115 8 -30 16
-63 19 -72 20 -80 25 -101 30 -128 3 -14 8 -34 11 -45 4 -11 8 -24 9 -30 6
-22 14 -56 18 -72 2 -10 9 -38 16 -63 6 -25 17 -72 25 -105 8 -33 17 -69 20
-80 4 -11 8 -31 11 -45 3 -14 8 -34 11 -45 7 -20 8 -23 17 -62 13 -53 17 -69
22 -91 2 -13 38 -157 79 -320 42 -163 77 -306 80 -317 2 -11 50 -202 106 -425
110 -441 117 -473 99 -495 -12 -15 -26 -19 -175 -61 -33 -9 -67 -17 -75 -19
-8 -2 -78 -20 -155 -40 -77 -21 -151 -39 -165 -42 -14 -3 -104 -26 -200 -50
-96 -24 -183 -46 -192 -49 -10 -2 -27 -6 -38 -9 -48 -12 -66 -16 -90 -21 -14
-3 -79 -19 -145 -35 -66 -17 -128 -32 -138 -34 -10 -3 -26 -6 -35 -9 -9 -3
-32 -8 -51 -11 -19 -3 -37 -8 -41 -10 -3 -2 -17 -6 -31 -9 -13 -2 -46 -10 -74
-16 -27 -6 -57 -13 -65 -15 -8 -1 -35 -8 -60 -15 -25 -7 -54 -14 -65 -15 -33
-6 -78 -15 -120 -27 -22 -5 -51 -12 -65 -15 -14 -2 -43 -9 -65 -15 -22 -5 -51
-12 -65 -15 -14 -2 -50 -10 -80 -18 -30 -8 -67 -16 -82 -19 -16 -4 -38 -8 -50
-11 -13 -3 -32 -7 -43 -9 -22 -5 -200 -45 -227 -52 -10 -2 -28 -6 -40 -10 -13
-3 -32 -7 -43 -8 -11 -2 -50 -11 -86 -19 -37 -9 -79 -19 -93 -22 -29 -6 -60
-12 -93 -20 -40 -9 -59 -13 -159 -35 -55 -12 -107 -23 -117 -25 -10 -2 -26 -6
-35 -9 -9 -3 -28 -7 -42 -10 -14 -2 -59 -12 -100 -21 -77 -17 -98 -21 -138
-29 -13 -3 -31 -7 -40 -10 -9 -3 -29 -8 -44 -11 -28 -5 -51 -10 -98 -20 -14
-4 -34 -8 -45 -10 -11 -3 -31 -7 -45 -10 -14 -4 -34 -8 -45 -10 -11 -3 -31 -7
-45 -10 -75 -17 -109 -24 -163 -35 -27 -5 -52 -12 -55 -14 -4 -2 -26 -7 -48
-10 -23 -4 -54 -10 -70 -15 -31 -9 -60 -2 -59 14 1 6 7 37 15 70 7 33 15 65
16 70 1 6 12 46 23 90 12 44 24 92 26 107 3 15 9 38 15 52 5 15 7 26 5 26 -2
0 0 11 5 25 5 14 12 36 14 48 5 21 11 48 20 85 3 9 9 32 15 50 5 17 8 32 6 32
-3 0 0 11 5 25 5 14 12 36 14 48 5 21 10 42 21 87 3 11 7 30 10 43 4 18 13 58
21 90 1 4 2 8 4 10 1 2 3 7 13 57 3 14 10 40 16 58 5 17 8 32 5 32 -3 0 0 8 5
18 5 9 11 31 14 47 3 17 26 109 51 205 25 96 47 189 51 207 3 18 9 43 15 57 5
15 8 26 5 26 -2 0 2 18 10 40 8 22 12 40 10 40 -2 0 2 18 10 40 8 22 12 40 10
40 -2 0 2 18 10 40 8 22 12 40 10 40 -3 0 0 11 5 25 5 14 12 36 14 48 5 21 10
42 21 87 3 11 7 29 10 40 3 11 7 29 10 40 3 11 7 29 10 40 3 11 7 28 9 38 2 9
45 181 95 381 50 200 93 373 96 385 4 20 9 41 20 86 3 11 7 29 10 41 2 11 7
29 10 39 3 10 8 28 10 39 3 12 7 29 10 39 9 36 155 626 160 650 2 9 18 71 35
137 16 66 32 129 34 140 2 11 12 49 21 85 9 36 19 75 21 87 2 12 9 34 14 48 5
14 8 25 5 25 -2 0 2 18 10 40 8 22 12 40 10 40 -2 0 2 18 10 40 8 22 12 40 10
40 -3 0 0 11 5 25 5 14 12 36 14 48 3 12 8 33 11 47 3 14 8 36 11 49 3 14 7
28 9 31 2 4 7 20 9 36 3 16 24 101 47 189 22 88 42 167 44 175 2 8 20 80 40
160 20 80 38 153 40 163 3 10 6 26 9 35 3 9 7 28 10 42 3 14 12 54 21 90 9 36
18 73 21 83 2 9 6 26 9 37 3 11 7 28 9 38 2 9 9 37 16 62 7 25 14 53 16 62 2
10 6 27 9 38 3 11 8 30 11 43 9 39 10 42 17 62 3 11 8 31 11 45 3 14 7 35 10
48 4 12 8 31 11 43 2 11 7 29 10 39 3 10 8 27 10 38 2 11 45 186 95 389 51
202 94 375 95 383 2 8 18 71 35 140 36 142 38 152 45 181 2 11 7 29 10 39 9
29 16 62 21 100 9 71 133 65 -1405 65 -1088 1 -1395 -2 -1414 -11z"/>
<path d="M18641 15512 c-22 -62 -155 -333 -199 -405 -23 -37 -42 -71 -42 -76
0 -5 -7 -11 -15 -15 -8 -3 -15 -10 -15 -17 0 -12 -96 -149 -179 -253 -342
-432 -826 -805 -1467 -1130 -61 -31 -114 -56 -118 -56 -5 0 -21 -9 -37 -21
-16 -11 -29 -18 -29 -15 0 3 -27 -8 -59 -25 -33 -16 -62 -29 -65 -29 -3 0 -33
-13 -65 -29 -33 -16 -62 -26 -65 -23 -4 3 -6 0 -6 -6 0 -7 -5 -12 -12 -12 -10
0 -229 -85 -283 -110 -11 -5 -65 -26 -120 -45 -55 -20 -111 -41 -125 -47 -26
-11 -136 -49 -285 -99 -49 -16 -97 -32 -105 -36 -8 -3 -19 -7 -25 -8 -5 -2
-64 -21 -130 -42 -96 -32 -257 -83 -405 -130 -8 -2 -16 -4 -18 -4 -1 1 -18 -5
-37 -13 -19 -8 -35 -13 -35 -11 0 3 -29 -6 -65 -20 -36 -13 -65 -22 -65 -19 0
2 -8 0 -18 -5 -11 -6 -30 -12 -43 -15 -13 -2 -62 -16 -109 -31 -47 -14 -92
-28 -100 -30 -63 -16 -402 -115 -408 -119 -5 -3 -19 -7 -33 -10 -44 -9 -63
-14 -194 -51 -118 -33 -210 -58 -257 -70 -10 -2 -62 -16 -115 -30 -54 -15
-105 -28 -113 -30 -8 -2 -51 -13 -95 -25 -44 -12 -88 -24 -97 -26 -10 -2 -26
-6 -35 -8 -152 -39 -792 -199 -803 -201 -59 -13 -402 -97 -430 -104 -19 -6
-50 -13 -69 -16 -19 -3 -37 -8 -41 -10 -4 -2 -22 -7 -41 -10 -19 -3 -50 -10
-69 -15 -19 -5 -48 -12 -65 -16 -16 -4 -32 -8 -35 -9 -3 0 -23 -5 -45 -10 -22
-4 -44 -9 -50 -11 -5 -2 -19 -5 -30 -8 -33 -7 -119 -27 -135 -31 -8 -2 -64
-15 -125 -30 -92 -22 -160 -37 -265 -60 -8 -1 -33 -8 -55 -13 -22 -6 -51 -13
-65 -15 -14 -3 -65 -15 -115 -27 -49 -12 -101 -24 -115 -26 -14 -3 -54 -12
-90 -20 -62 -15 -79 -19 -125 -28 -11 -2 -38 -9 -60 -14 -22 -6 -51 -13 -65
-16 -62 -12 -216 -47 -229 -51 -8 -3 -30 -8 -50 -11 -20 -3 -70 -14 -111 -24
-71 -18 -90 -22 -157 -35 -16 -3 -36 -8 -45 -11 -9 -3 -25 -6 -35 -8 -10 -3
-48 -11 -84 -20 -37 -8 -78 -17 -90 -20 -85 -18 -180 -38 -214 -48 -43 -11
-63 -15 -110 -23 -16 -3 -38 -8 -47 -11 -9 -3 -26 -7 -37 -9 -12 -3 -31 -7
-43 -10 -13 -3 -36 -8 -53 -10 -16 -3 -43 -10 -60 -15 -16 -5 -42 -11 -58 -14
-15 -3 -37 -8 -48 -11 -12 -4 -31 -8 -42 -10 -34 -5 -78 -15 -122 -27 -43 -11
-66 -16 -105 -24 -14 -3 -41 -9 -60 -14 -19 -5 -50 -12 -69 -15 -19 -3 -37 -8
-41 -10 -4 -2 -20 -7 -36 -9 -16 -3 -38 -8 -49 -10 -11 -3 -51 -12 -90 -21
-38 -9 -78 -18 -88 -20 -31 -9 -62 -16 -87 -21 -14 -3 -54 -12 -90 -20 -64
-15 -77 -18 -123 -30 -12 -3 -33 -7 -47 -10 -14 -3 -33 -7 -42 -10 -10 -3 -28
-7 -40 -9 -13 -3 -59 -14 -103 -25 -44 -11 -96 -23 -115 -26 -19 -3 -44 -11
-55 -17 -11 -6 -22 -10 -25 -9 -5 2 -235 -50 -330 -75 -30 -8 -66 -16 -79 -19
-46 -9 -574 -145 -581 -149 -3 -2 -17 -6 -31 -9 -56 -12 -74 -16 -104 -26 -18
-6 -43 -13 -56 -16 -40 -9 -54 -12 -54 -14 0 -1 -7 -3 -15 -5 -8 -1 -42 -10
-75 -19 -33 -10 -64 -18 -70 -19 -5 -2 -16 -6 -23 -10 -6 -5 -12 -6 -12 -4 0
3 -37 -6 -82 -20 -46 -13 -90 -26 -98 -28 -52 -12 -76 -18 -85 -24 -5 -3 -12
-6 -15 -7 -16 -2 -141 -39 -180 -52 -8 -3 -19 -6 -25 -7 -23 -6 -164 -52 -355
-116 -113 -38 -213 -71 -224 -74 -27 -6 -238 -85 -258 -96 -10 -5 -26 -9 -36
-9 -9 0 -26 -6 -37 -14 -11 -7 -33 -16 -49 -20 -15 -4 -47 -15 -70 -25 -22
-10 -57 -24 -76 -31 -19 -7 -48 -19 -65 -26 -16 -7 -86 -36 -155 -64 -69 -29
-145 -61 -170 -73 -25 -12 -47 -22 -50 -22 -12 -3 -62 -26 -144 -64 -49 -23
-90 -41 -92 -41 -14 0 -457 -225 -504 -255 -8 -5 -17 -10 -20 -10 -9 -2 -81
-47 -200 -126 -272 -179 -465 -360 -648 -604 -53 -72 -167 -276 -200 -360 -6
-16 -17 -43 -23 -60 -7 -16 -13 -32 -14 -35 0 -3 -11 -37 -23 -75 -12 -39 -24
-79 -26 -90 -2 -11 -9 -38 -14 -60 -13 -47 -20 -83 -28 -145 -3 -25 -7 -56
-10 -70 -17 -99 -22 -358 -10 -525 11 -149 11 -153 16 -159 3 -2 52 45 110
106 127 133 305 293 460 415 114 88 362 263 374 263 9 0 70 43 74 53 2 4 8 7
14 7 5 0 42 19 81 43 131 79 465 254 582 304 28 12 86 39 130 59 44 21 82 38
85 39 6 1 228 95 250 106 8 4 47 19 85 34 39 16 84 34 100 40 17 7 44 18 60
23 17 6 91 34 165 62 152 58 251 93 425 151 66 22 127 43 135 46 8 3 21 7 28
9 8 1 21 6 30 10 9 4 22 8 27 10 6 1 69 21 140 44 72 23 135 43 140 44 59 15
103 28 115 33 18 8 17 7 60 17 19 5 40 11 45 14 6 4 16 7 24 9 8 1 37 9 65 18
28 10 61 19 74 21 13 3 42 11 65 19 23 8 53 16 67 19 14 3 66 17 115 31 50 14
97 28 105 30 72 18 188 48 200 53 22 8 32 10 62 17 15 3 39 10 53 15 14 5 25
7 25 5 0 -2 11 0 25 5 14 5 36 12 48 14 12 3 202 50 422 105 220 56 409 103
420 106 11 2 30 6 43 9 13 3 32 8 42 11 10 3 28 8 39 10 12 3 30 7 41 10 11 3
29 7 40 10 11 3 28 7 37 9 10 2 38 9 63 15 25 7 53 13 63 16 10 2 26 6 35 9 9
3 28 7 42 10 29 6 26 5 195 46 171 41 162 39 185 45 11 3 29 7 41 10 11 2 29
7 39 10 10 3 28 8 39 10 12 3 31 7 44 11 12 3 31 7 42 9 23 4 22 4 165 39 58
15 114 28 125 31 11 2 30 6 43 9 12 4 30 8 40 10 9 2 37 9 62 16 25 7 54 14
65 16 18 4 37 8 83 18 9 2 44 11 77 19 33 9 71 18 85 21 23 5 42 9 90 21 11 3
29 7 40 10 49 12 67 16 90 21 14 3 34 8 45 11 11 4 27 7 35 8 8 1 42 9 75 18
33 9 71 18 85 20 14 3 45 10 70 17 25 7 55 14 67 16 12 2 34 9 48 14 14 5 25
7 25 5 0 -2 11 0 25 5 14 5 36 12 48 14 23 5 228 53 262 62 11 3 31 7 45 10
14 3 77 18 140 35 63 16 125 31 138 34 12 3 32 7 45 11 12 3 32 7 44 10 12 2
34 9 48 14 14 5 25 7 25 5 0 -2 11 0 25 5 14 5 36 12 48 14 39 9 60 14 147 36
47 12 96 24 110 26 14 3 34 8 45 11 11 4 27 8 35 9 13 2 193 46 243 59 9 3 25
7 35 9 9 2 145 36 302 76 157 40 301 76 320 80 75 18 413 103 655 165 99 26
188 48 197 50 9 2 77 19 150 39 73 19 145 37 158 40 14 3 43 10 65 16 22 6 47
12 55 14 8 2 51 14 95 25 44 12 94 24 110 27 17 3 38 10 48 15 9 5 17 7 17 5
0 -3 11 -1 25 4 14 5 36 12 48 14 12 2 101 25 197 51 96 25 183 48 192 50 9 2
51 13 93 25 42 12 85 23 96 26 28 6 47 11 114 29 33 9 65 18 70 19 23 5 151
39 165 44 8 3 23 7 33 8 10 2 122 33 250 70 128 36 239 67 247 69 8 2 15 4 15
5 0 1 7 3 15 5 27 5 322 96 430 132 58 19 112 36 120 38 70 18 611 214 624
226 6 5 16 9 24 9 8 0 30 7 50 16 21 9 46 19 57 24 11 4 31 12 45 18 14 6 59
25 100 43 41 17 91 38 110 47 19 9 37 16 40 16 16 2 269 122 445 211 462 234
757 438 1036 715 430 428 701 933 764 1425 4 28 9 66 12 85 8 62 9 343 2 405
-4 33 -10 83 -13 110 -3 28 -8 61 -11 75 -3 14 -8 38 -11 54 -2 16 -14 61 -25
100 -11 39 -21 76 -22 81 -2 6 -6 16 -10 23 -5 6 -6 12 -2 12 3 0 1 9 -5 21
-6 11 -13 30 -15 41 -8 39 -21 39 -34 0z"/>
<path d="M19509 13568 c-114 -226 -268 -488 -343 -583 -8 -11 -50 -65 -92
-120 -338 -440 -821 -835 -1439 -1177 -144 -80 -397 -208 -410 -208 -6 0 -16
-5 -23 -12 -6 -6 -17 -13 -24 -14 -7 -1 -60 -24 -118 -51 -94 -44 -140 -65
-147 -64 -2 0 -36 -15 -78 -34 -41 -19 -79 -35 -83 -36 -4 -1 -18 -6 -32 -12
-14 -5 -30 -11 -37 -13 -7 -1 -27 -9 -44 -18 -18 -9 -35 -16 -39 -16 -4 0 -25
-8 -46 -17 -22 -9 -43 -18 -49 -19 -5 -2 -55 -19 -110 -39 -55 -20 -147 -52
-205 -71 -58 -20 -112 -38 -120 -41 -8 -3 -19 -7 -25 -8 -14 -4 -237 -75 -255
-82 -8 -3 -20 -7 -27 -9 -6 -1 -47 -13 -90 -27 -43 -14 -121 -37 -173 -52 -52
-14 -102 -29 -110 -32 -8 -3 -19 -7 -25 -8 -5 -2 -37 -11 -70 -21 -33 -10 -64
-19 -70 -20 -5 -2 -41 -12 -80 -24 -38 -11 -78 -22 -88 -25 -9 -2 -21 -6 -25
-9 -5 -3 -20 -7 -35 -10 -15 -2 -41 -10 -59 -16 -41 -13 -306 -90 -333 -95
-11 -3 -51 -14 -90 -25 -38 -12 -77 -23 -85 -25 -8 -2 -40 -11 -70 -20 -30 -9
-62 -17 -70 -19 -8 -2 -42 -12 -75 -22 -33 -10 -64 -19 -70 -20 -9 -2 -111
-30 -140 -38 -5 -2 -23 -6 -40 -11 -16 -4 -136 -37 -265 -72 -129 -36 -243
-66 -252 -69 -10 -2 -26 -6 -35 -9 -39 -10 -99 -26 -113 -29 -8 -2 -35 -10
-60 -17 -25 -7 -49 -13 -55 -15 -5 -1 -64 -16 -130 -34 -66 -17 -124 -32 -130
-33 -5 -2 -16 -6 -22 -10 -7 -5 -13 -6 -13 -3 0 3 -18 -1 -40 -9 -22 -8 -40
-12 -40 -10 0 3 -11 0 -25 -5 -14 -5 -36 -12 -48 -14 -12 -2 -58 -14 -102 -26
-44 -12 -88 -23 -98 -26 -34 -8 -57 -14 -74 -18 -10 -3 -72 -19 -137 -36 -66
-18 -128 -34 -138 -36 -10 -2 -26 -6 -35 -8 -16 -4 -803 -204 -828 -210 -5 -2
-21 -6 -35 -9 -14 -3 -153 -38 -310 -78 -157 -39 -301 -75 -320 -79 -64 -15
-78 -18 -287 -70 -204 -51 -222 -55 -264 -65 -11 -2 -29 -7 -39 -10 -10 -3
-27 -7 -37 -9 -10 -2 -47 -12 -83 -21 -36 -9 -76 -19 -90 -21 -14 -3 -34 -8
-45 -11 -11 -4 -24 -8 -30 -9 -5 -1 -50 -12 -100 -24 -49 -12 -98 -23 -109
-25 -10 -3 -56 -14 -101 -25 -45 -11 -92 -23 -104 -25 -11 -3 -29 -7 -38 -9
-38 -10 -239 -57 -261 -62 -13 -2 -69 -16 -125 -30 -56 -13 -118 -27 -137 -30
-19 -3 -38 -8 -42 -11 -5 -2 -16 -6 -25 -8 -10 -1 -58 -12 -106 -24 -49 -12
-103 -23 -120 -27 -18 -3 -54 -11 -82 -19 -27 -8 -61 -16 -75 -19 -14 -2 -43
-9 -65 -14 -22 -6 -51 -13 -65 -16 -14 -3 -35 -7 -48 -10 -12 -4 -31 -8 -43
-11 -11 -2 -28 -6 -37 -9 -9 -3 -29 -8 -44 -11 -64 -12 -82 -16 -88 -20 -4 -2
-22 -7 -41 -10 -19 -3 -81 -17 -139 -31 -58 -14 -112 -27 -120 -29 -66 -15
-142 -33 -170 -40 -31 -8 -43 -11 -225 -55 -93 -22 -177 -43 -185 -45 -37 -9
-235 -57 -249 -60 -18 -4 -96 -23 -124 -30 -9 -3 -25 -7 -35 -9 -112 -28 -437
-113 -507 -133 -49 -14 -97 -26 -105 -28 -8 -2 -35 -9 -60 -16 -25 -7 -47 -13
-50 -14 -3 -1 -25 -7 -50 -14 -25 -7 -56 -15 -69 -18 -13 -2 -32 -8 -43 -14
-10 -5 -18 -7 -18 -5 0 3 -12 1 -27 -5 -16 -6 -35 -12 -43 -14 -8 -2 -46 -13
-85 -25 -38 -12 -77 -23 -85 -25 -105 -27 -808 -256 -845 -276 -12 -5 -27 -11
-35 -13 -20 -4 -51 -16 -72 -27 -10 -5 -22 -9 -27 -9 -5 0 -22 -5 -38 -12 -15
-6 -32 -12 -38 -14 -15 -3 -196 -72 -225 -86 -14 -6 -34 -14 -45 -18 -38 -14
-110 -44 -152 -62 -23 -10 -45 -18 -48 -18 -3 0 -30 -11 -58 -24 -29 -13 -76
-34 -105 -45 -29 -12 -89 -39 -135 -60 -45 -21 -107 -48 -137 -62 -198 -86
-650 -322 -865 -452 -160 -97 -473 -310 -495 -337 -3 -3 -21 -17 -40 -30 -160
-112 -466 -405 -639 -613 -88 -106 -197 -255 -230 -313 -9 -16 -18 -31 -21
-34 -8 -7 -55 -83 -63 -100 -4 -8 -23 -42 -43 -75 -44 -75 -134 -262 -173
-357 -38 -94 -100 -265 -105 -286 -1 -9 -6 -24 -9 -32 -6 -15 -36 -122 -42
-150 -2 -8 -8 -30 -14 -47 -5 -18 -8 -33 -6 -33 3 0 1 -10 -4 -23 -5 -13 -12
-39 -15 -58 -3 -19 -8 -45 -11 -59 -2 -14 -7 -36 -10 -50 -2 -14 -7 -41 -10
-60 -3 -19 -8 -46 -10 -60 -3 -14 -7 -43 -10 -65 -5 -57 -16 -136 -22 -160 -6
-31 -16 -421 -10 -415 3 3 32 43 65 90 34 47 64 90 69 95 4 6 24 30 43 55 312
406 784 852 1220 1153 249 172 509 333 765 472 85 47 423 215 430 215 3 0 26
11 53 24 26 13 67 33 92 44 54 24 118 52 180 80 25 11 104 43 175 72 72 28
144 58 160 65 17 7 77 31 135 53 58 21 114 43 125 47 11 4 25 9 30 11 6 1 24
8 40 15 17 6 35 13 40 15 9 2 118 42 250 90 22 8 47 16 56 18 8 2 32 11 53 20
21 9 48 18 60 20 18 4 233 75 321 106 17 6 37 13 45 15 15 4 158 48 215 66 17
6 37 12 45 14 8 2 44 13 80 24 36 10 130 38 210 61 80 23 152 45 160 48 8 3
20 6 25 7 6 2 28 8 50 14 22 6 45 11 50 12 6 1 21 6 35 11 14 5 32 11 40 13
15 3 33 8 220 60 52 15 102 28 110 30 8 2 74 19 145 38 72 19 144 38 160 42
17 5 35 9 40 11 6 2 19 5 30 8 11 3 65 17 120 31 55 15 108 28 118 31 9 2 26
6 37 9 11 3 29 7 41 10 11 2 29 7 39 10 10 3 27 8 37 10 10 2 54 14 98 25 44
12 91 23 105 26 14 3 34 8 45 11 11 4 25 8 30 9 6 1 46 12 90 23 108 29 112
30 135 36 11 3 29 7 40 10 11 3 28 7 37 9 10 3 81 21 158 41 77 20 145 38 150
39 6 1 16 5 22 9 7 5 13 6 13 3 0 -3 18 1 40 9 22 8 40 12 40 10 0 -3 11 0 26
5 14 6 37 12 52 15 23 4 73 17 234 60 10 3 26 7 36 9 9 2 37 9 62 16 25 7 45
11 45 10 0 -1 12 3 28 9 15 6 38 13 50 15 27 5 250 63 292 76 17 5 41 12 55
14 24 5 108 27 480 126 85 22 162 42 170 44 8 2 42 11 75 20 33 9 67 18 75 20
8 2 60 16 115 31 55 15 108 28 119 31 10 2 44 11 75 20 31 9 63 18 71 19 19 4
198 52 415 110 94 25 178 48 188 50 10 2 27 7 37 10 10 3 27 7 37 9 25 5 185
47 203 54 19 6 29 9 58 16 12 3 31 8 42 11 11 3 28 7 38 9 9 2 37 10 62 17 59
16 62 17 85 23 11 2 54 14 95 26 41 12 86 23 100 26 14 3 43 10 65 16 22 6 45
13 50 14 6 2 71 19 145 39 74 20 142 38 150 40 25 7 94 25 110 29 17 5 169 45
185 50 73 21 103 29 120 32 11 2 61 15 110 29 50 14 98 28 108 30 10 2 27 7
37 10 10 3 27 8 37 10 36 7 214 56 238 65 14 5 25 8 25 5 0 -2 19 2 41 11 23
8 51 16 63 19 41 9 202 53 401 110 88 25 167 47 175 49 8 2 56 16 105 31 50
14 97 28 105 30 8 2 15 4 15 5 0 1 7 3 16 5 9 1 43 11 75 21 33 9 65 18 72 20
7 1 57 16 110 32 183 57 247 76 257 78 6 1 51 14 100 30 50 15 95 29 100 30
47 13 145 43 385 119 63 20 122 38 130 40 8 2 56 16 105 33 50 16 158 50 240
76 83 26 164 52 180 59 17 6 33 12 38 13 4 1 8 2 10 4 1 1 9 3 17 5 8 2 85 27
170 55 85 28 160 52 165 54 6 1 15 4 20 7 6 4 22 9 37 13 15 3 40 11 55 18 15
6 30 12 33 13 13 3 147 47 160 52 8 3 21 7 28 9 8 1 21 6 30 10 9 4 22 8 27
10 15 4 218 74 235 81 8 3 20 7 25 9 6 1 69 23 140 49 72 25 150 53 175 61 25
8 54 19 65 24 19 8 206 77 290 107 22 8 54 20 70 27 17 8 59 26 95 41 36 15
85 36 110 48 25 11 50 22 55 23 14 2 314 152 390 194 635 353 1115 830 1377
1369 28 58 51 110 52 115 2 6 9 27 18 46 12 28 58 158 63 180 1 3 4 12 7 20 6
17 28 93 34 122 2 10 6 28 9 41 6 25 12 57 20 102 3 17 8 37 10 45 3 8 7 38
11 65 3 28 8 64 10 80 22 177 22 530 -1 650 -3 17 -8 41 -10 54 -13 76 -28
135 -51 197 -13 38 -27 77 -29 88 -2 10 -10 25 -17 34 -7 8 -12 18 -11 21 5
11 -8 41 -17 41 -5 0 -19 -19 -31 -42z"/>
<path d="M18350 9433 c-16 -5 -36 -14 -130 -56 -30 -14 -77 -35 -105 -47 -27
-12 -63 -28 -80 -35 -16 -7 -73 -32 -125 -54 -52 -23 -103 -46 -112 -51 -10
-6 -22 -10 -28 -10 -5 0 -35 -12 -67 -26 -32 -14 -71 -31 -88 -38 -16 -7 -47
-21 -68 -30 -21 -9 -42 -16 -47 -16 -5 0 -33 -11 -62 -24 -47 -22 -238 -96
-342 -133 -22 -8 -48 -19 -58 -24 -11 -6 -27 -12 -36 -14 -22 -4 -238 -82
-280 -100 -18 -8 -37 -15 -42 -15 -5 0 -21 -5 -37 -11 -15 -6 -28 -10 -28 -10
0 1 -38 -13 -85 -29 -96 -35 -230 -79 -245 -80 -5 -1 -16 -6 -22 -12 -7 -6
-13 -8 -13 -4 0 3 -17 0 -37 -8 -21 -8 -47 -17 -58 -22 -11 -4 -24 -8 -30 -9
-5 -2 -59 -19 -120 -38 -146 -47 -490 -152 -560 -171 -5 -1 -30 -8 -55 -15
-25 -7 -47 -13 -50 -13 -3 0 -16 -5 -30 -10 -14 -5 -32 -11 -40 -13 -8 -2 -35
-9 -60 -16 -25 -7 -49 -14 -55 -15 -5 -2 -59 -17 -120 -34 -116 -33 -134 -38
-163 -44 -9 -2 -37 -10 -62 -17 -25 -7 -49 -13 -55 -14 -5 -2 -46 -12 -89 -25
-43 -12 -88 -24 -100 -26 -70 -13 -163 -47 -178 -64 -16 -19 -16 -45 -2 -92 3
-9 6 -25 8 -35 2 -10 12 -47 21 -83 9 -36 19 -73 21 -83 2 -10 6 -27 9 -37 3
-10 7 -27 9 -37 2 -10 9 -38 16 -63 12 -44 17 -64 26 -107 2 -12 9 -34 14 -48
5 -14 8 -25 5 -25 -2 0 2 -18 10 -40 8 -22 12 -40 10 -40 -3 0 0 -11 5 -25 5
-14 12 -36 14 -48 2 -12 12 -51 21 -87 9 -36 19 -73 21 -83 2 -10 6 -27 9 -37
3 -10 7 -27 9 -37 2 -10 12 -47 21 -83 9 -36 19 -73 21 -82 2 -10 6 -26 8 -35
2 -10 14 -56 26 -103 12 -47 24 -95 26 -107 2 -12 9 -34 14 -48 5 -14 7 -25 5
-25 -2 0 0 -11 5 -25 5 -14 12 -36 14 -48 5 -21 10 -42 21 -87 3 -11 7 -29 10
-40 3 -11 7 -29 10 -40 3 -11 7 -29 10 -40 3 -11 7 -29 10 -41 2 -11 7 -29 10
-39 3 -10 8 -27 10 -38 7 -40 96 -399 110 -447 9 -27 17 -61 20 -75 2 -14 9
-43 14 -65 5 -22 13 -53 17 -70 4 -16 8 -34 10 -40 2 -5 5 -19 8 -30 8 -34 26
-109 31 -127 8 -31 16 -62 21 -88 3 -14 9 -38 14 -55 5 -16 17 -59 25 -95 9
-36 18 -73 21 -82 2 -10 6 -26 8 -35 5 -22 56 -232 62 -253 8 -32 86 -346 90
-362 2 -10 6 -27 9 -38 3 -11 7 -29 10 -40 3 -11 7 -29 10 -40 3 -11 7 -28 9
-38 2 -9 9 -37 16 -62 7 -25 13 -52 15 -60 2 -8 40 -163 85 -345 45 -181 83
-337 85 -345 2 -8 8 -35 14 -60 7 -25 13 -53 16 -63 2 -10 7 -27 10 -37 3 -10
8 -28 10 -39 3 -12 7 -31 11 -44 3 -12 7 -31 10 -42 2 -11 24 -101 50 -200 25
-99 47 -191 50 -205 3 -14 14 -59 25 -101 11 -42 22 -86 24 -98 3 -11 7 -30
10 -42 2 -11 7 -29 10 -39 3 -10 8 -28 10 -39 3 -12 7 -31 11 -44 3 -12 7 -32
10 -44 2 -12 9 -34 14 -48 5 -14 7 -25 5 -25 -2 0 0 -11 5 -25 5 -14 12 -36
14 -48 17 -94 42 -137 83 -144 40 -6 130 -15 283 -28 25 -3 70 -7 100 -10 30
-3 75 -8 100 -10 84 -9 165 -17 190 -20 14 -1 57 -6 95 -10 39 -3 81 -8 95
-10 14 -2 50 -7 80 -10 30 -3 75 -8 100 -11 25 -3 63 -7 84 -9 21 -3 55 -7 75
-10 20 -2 61 -7 91 -10 52 -5 104 -11 160 -20 14 -2 50 -6 80 -9 30 -4 64 -8
75 -10 11 -2 49 -7 85 -11 36 -4 76 -8 90 -10 31 -5 89 -13 155 -21 28 -3 59
-8 70 -10 11 -2 46 -6 79 -9 33 -4 62 -8 65 -10 4 -2 34 -6 68 -10 34 -3 72
-8 84 -10 27 -5 78 -13 137 -20 74 -9 116 -15 138 -19 12 -2 45 -7 74 -11 29
-4 62 -9 74 -11 11 -2 38 -6 61 -9 22 -4 51 -8 65 -10 14 -2 43 -7 65 -10 22
-2 51 -7 65 -9 14 -3 45 -7 70 -10 25 -3 56 -8 70 -11 14 -3 43 -8 65 -11 22
-3 49 -7 60 -9 11 -2 38 -6 60 -9 23 -4 50 -8 60 -10 19 -3 75 -12 135 -21 28
-5 74 -12 123 -21 17 -3 46 -7 62 -10 17 -2 41 -6 55 -9 14 -3 41 -7 60 -10
19 -3 46 -7 60 -10 14 -3 41 -7 60 -10 19 -3 46 -7 60 -10 36 -8 102 -19 175
-31 17 -2 41 -7 55 -9 61 -13 77 -15 110 -20 19 -3 46 -7 60 -10 14 -3 41 -8
60 -11 19 -3 42 -7 50 -9 8 -2 29 -6 45 -9 84 -14 101 -17 115 -21 8 -2 31 -6
50 -9 19 -3 46 -8 60 -11 14 -3 36 -7 50 -10 14 -3 35 -7 46 -9 12 -2 37 -7
55 -10 19 -3 45 -8 59 -11 14 -3 40 -8 59 -10 18 -3 37 -7 41 -10 4 -2 27 -7
51 -10 24 -3 51 -7 59 -10 8 -2 29 -7 45 -10 17 -2 41 -7 55 -10 14 -3 43 -7
65 -10 22 -3 51 -7 65 -10 14 -3 37 -7 53 -10 15 -3 53 -15 85 -27 84 -32 92
-31 92 9 0 18 -11 61 -25 95 -14 34 -25 65 -25 69 0 5 -11 33 -25 63 -14 30
-25 59 -25 64 0 6 -13 39 -28 74 -16 34 -29 65 -29 68 0 10 -26 86 -36 105 -6
11 -12 25 -13 30 -2 8 -37 101 -69 180 -4 11 -9 25 -11 30 -1 6 -8 24 -15 40
-7 17 -13 32 -14 35 -1 3 -4 12 -8 20 -3 8 -44 116 -91 240 -47 124 -90 239
-97 255 -7 17 -13 35 -15 40 -5 17 -94 249 -104 270 -5 11 -37 94 -70 185 -61
162 -142 375 -159 415 -5 11 -18 45 -29 75 -11 30 -39 105 -62 165 -23 61 -53
137 -65 170 -13 33 -34 89 -48 125 -14 36 -61 160 -105 275 -45 116 -86 224
-93 240 -7 17 -13 35 -15 40 -3 11 -46 124 -65 170 -6 17 -13 35 -14 40 -3 10
-121 317 -146 380 -7 17 -13 35 -15 40 -3 13 -72 193 -84 220 -5 11 -45 117
-90 235 -44 118 -85 224 -90 235 -4 11 -21 54 -36 95 -15 41 -34 91 -42 110
-9 19 -17 40 -18 45 -4 17 -74 198 -89 232 -8 17 -15 34 -15 38 0 3 -30 84
-66 178 -146 381 -142 369 -140 378 0 3 -4 12 -10 20 -6 8 -17 35 -25 62 -7
26 -17 47 -21 47 -4 0 -7 3 -6 8 0 4 -2 16 -6 27 -4 11 -13 34 -18 50 -6 17
-17 44 -23 60 -7 17 -30 77 -52 135 -22 58 -44 114 -48 125 -5 11 -9 23 -10
28 -2 4 -4 9 -5 12 -1 3 -3 8 -5 13 -1 4 -7 21 -14 37 -6 17 -27 71 -46 120
-19 50 -55 144 -80 210 -26 66 -57 147 -69 180 -13 33 -27 69 -31 80 -4 11 -9
25 -11 30 -1 6 -24 64 -49 130 -26 66 -57 147 -70 180 -46 124 -266 701 -272
715 -3 8 -7 17 -7 20 -4 20 -80 191 -87 196 -14 8 -42 12 -59 7z"/>
<path d="M6675 6146 c-37 -13 -82 -25 -112 -32 -6 -1 -51 -13 -100 -27 -113
-33 -178 -50 -178 -46 0 1 -9 -3 -21 -9 -11 -6 -32 -13 -45 -15 -13 -3 -51
-13 -84 -23 -33 -10 -64 -19 -70 -20 -25 -5 -285 -78 -420 -119 -66 -20 -131
-38 -144 -41 -14 -3 -28 -7 -33 -10 -4 -3 -16 -7 -25 -9 -10 -2 -40 -11 -67
-20 -26 -9 -57 -18 -67 -20 -22 -4 -240 -72 -281 -87 -15 -6 -31 -10 -35 -11
-9 -1 -500 -164 -523 -174 -8 -3 -19 -7 -25 -9 -119 -37 -654 -245 -810 -315
-27 -12 -54 -23 -60 -25 -5 -1 -46 -18 -90 -39 -44 -20 -111 -50 -150 -68 -92
-41 -578 -287 -585 -295 -3 -4 -23 -16 -45 -27 -166 -82 -554 -333 -793 -512
-489 -366 -935 -820 -1186 -1204 -78 -121 -197 -368 -211 -439 -2 -8 -4 -15
-5 -15 -1 0 -3 -7 -5 -15 -8 -41 -68 -207 -108 -303 -25 -59 -43 -107 -40
-107 3 0 1 -6 -4 -12 -6 -7 -16 -31 -23 -53 -7 -22 -16 -44 -20 -50 -6 -9 -53
-130 -56 -145 0 -3 -6 -18 -13 -35 -7 -16 -14 -37 -16 -47 -2 -9 -10 -29 -18
-45 -8 -15 -22 -53 -32 -83 -10 -30 -21 -59 -25 -65 -8 -11 -34 -86 -32 -95 0
-3 -4 -10 -9 -17 -6 -6 -14 -24 -19 -40 -5 -15 -18 -53 -30 -83 -12 -30 -23
-59 -24 -65 -2 -5 -8 -23 -15 -39 -23 -57 -20 -71 19 -72 19 0 49 3 65 7 17 5
41 10 55 13 14 3 36 7 50 11 14 3 63 12 110 21 47 9 94 18 105 20 11 2 31 6
45 9 14 3 36 7 50 10 14 3 39 8 55 10 17 3 37 8 45 10 8 2 31 7 50 10 19 3 49
8 65 12 17 3 37 7 45 8 8 1 29 5 45 8 17 4 44 9 60 12 17 3 41 7 55 10 14 3
43 8 64 10 21 3 42 7 45 9 4 3 25 7 47 10 22 4 51 9 64 11 29 6 67 13 110 20
43 7 81 14 110 20 13 2 40 7 60 10 20 3 47 8 60 10 14 3 39 7 55 10 17 3 41 7
55 10 14 3 39 7 55 9 17 3 45 8 63 11 17 3 47 7 65 10 17 3 43 7 57 10 14 3
41 7 60 10 19 3 46 7 60 10 14 3 40 7 58 10 17 3 45 7 61 10 16 3 46 7 67 10
22 3 50 7 64 10 28 6 65 12 125 20 22 3 51 7 65 10 27 5 63 11 125 20 23 3 52
8 65 11 14 2 39 6 55 8 37 4 123 17 150 22 11 2 40 7 65 10 25 3 56 7 70 10
14 2 43 7 65 9 22 3 52 8 66 10 15 3 47 7 70 10 24 3 55 7 69 10 55 8 107 16
150 21 25 3 54 7 65 9 11 2 43 6 71 9 28 4 61 9 75 11 13 3 47 7 74 10 28 3
61 7 75 10 14 2 50 7 80 10 30 4 64 8 75 10 11 1 47 6 80 10 33 3 74 9 90 12
17 2 46 6 65 8 19 2 53 6 76 9 23 4 61 9 85 11 24 2 67 7 94 11 28 4 61 8 75
9 58 6 147 16 180 20 19 3 55 7 80 10 89 9 183 20 273 30 23 3 65 7 92 10 81
7 162 16 207 20 24 3 68 7 98 10 30 3 75 7 100 10 25 3 72 7 105 10 119 10
137 27 161 148 2 10 6 27 9 37 3 10 8 27 10 37 2 10 15 65 30 123 14 58 28
116 31 130 3 14 14 59 25 101 11 42 21 85 23 95 2 10 12 48 21 84 9 36 19 73
21 83 5 21 13 52 19 75 8 29 26 106 30 125 2 10 7 27 10 37 3 10 8 27 10 37 2
10 13 56 24 103 21 85 27 108 35 145 3 11 9 35 15 53 5 17 8 32 5 32 -3 0 0 8
5 18 5 9 11 31 14 47 3 17 17 75 31 130 15 55 28 112 31 127 3 15 9 38 15 52
5 15 8 26 5 26 -2 0 2 18 10 40 8 22 12 40 10 40 -2 0 2 18 10 40 8 22 12 40
10 40 -2 0 2 18 10 40 8 22 12 40 10 40 -2 0 2 18 10 40 8 22 12 40 10 40 -3
0 0 11 5 25 5 14 12 36 14 48 9 43 14 63 26 107 7 25 14 55 16 67 2 12 9 34
14 48 5 14 7 25 5 25 -2 0 0 11 5 25 5 14 12 36 14 48 2 12 16 67 29 122 14
55 28 111 31 125 3 14 37 150 75 303 39 153 73 288 75 300 6 26 14 60 21 85 2
9 12 46 20 82 23 98 24 100 28 108 3 4 8 23 11 42 8 50 12 67 31 140 9 36 18
70 19 75 1 6 5 19 9 30 3 11 8 31 11 45 3 14 7 35 10 48 4 12 8 30 10 40 2 9
7 29 11 45 8 31 6 31 -50 13z"/>
</g>
</svg>
